<?xml version="1.0" standalone="no"?><!DOCTYPE svg PUBLIC "-//W3C//DTD SVG 1.1//EN" "http://www.w3.org/Graphics/SVG/1.1/DTD/svg11.dtd"><svg class="icon" width="200px" height="200.00px" viewBox="0 0 1024 1024" version="1.1" xmlns="http://www.w3.org/2000/svg"><path fill="#333333" d="M505.1904 307.968m-178.4832 0a178.4832 178.4832 0 1 0 356.9664 0 178.4832 178.4832 0 1 0-356.9664 0Z"  /><path fill="#333333" d="M873.5744 742.6048l-29.8496-128.5632c-13.0048-56.0128-66.9184-96.7168-128.1536-96.7168H294.8096c-61.2352 0-115.1488 40.6528-128.1536 96.7168l-29.8496 128.5632c-8.0896 34.7648 0.256 71.0144 22.8864 99.4816 24.9856 31.488 63.3856 49.5616 105.2672 49.5616h480.512c41.8816 0 80.2816-18.0736 105.2672-49.5616 22.5792-28.4672 30.9248-64.7168 22.8352-99.4816z m-243.8656 50.2784H380.672c-14.1312 0-25.6-11.4688-25.6-25.6s11.4688-25.6 25.6-25.6h249.0368c14.1312 0 25.6 11.4688 25.6 25.6s-11.4688 25.6-25.6 25.6z"  /></svg>